# AST/ASF file generated using VICON BodyLanguage
# -----------------------------------------------
:version 1.10
:name VICON
:units
  mass 1.0
  length 0.45
  angle deg
:documentation
   .ast/.asf automatically generated from VICON data using
   VICON BodyBuilder and BodyLanguage model FoxedUp or BRILLIANT.MOD
:root
   order TX TY TZ RX RY RZ
   axis XYZ
   position 0 0 0  
   orientation 0 0 0 
:bonedata
  begin
     id 1 
     name lhipjoint
     direction 0.588788 -0.725889 0.355548 
     length 2.37778 
     axis 0 0 0  XYZ
  end
  begin
     id 2 
     name lfemur
     direction 0.34202 -0.939693 0  
     length 6.86393  
     axis 0 0 20  XYZ
    dof rx ry rz
    limits (-160.0 20.0)
           (-70.0 70.0)
           (-60.0 70.0)
  end
  begin
     id 3 
     name ltibia
     direction 0.34202 -0.939693 0   
     length 7.32851   
     axis 0 0 20   XYZ
    dof rx
    limits (-10.0 170.0)
  end
  begin
     id 4 
     name lfoot
     direction 0.0626533 -0.172138 0.983078   
     length 1.98929   
     axis -90 7.62852e-016 20   XYZ
    dof rx rz
    limits (-45.0 90.0)
           (-70.0 20.0)
  end
  begin
     id 5 
     name ltoes
     direction 1.53647e-011 -4.21734e-011 1   
     length 1.00479   
     axis -90 7.62852e-016 20   XYZ
    dof rx
    limits (-90.0 20.0)
  end
  begin
     id 6 
     name rhipjoint
     direction -0.59141 -0.724168 0.354705   
     length 2.38343  
     axis 0 0 0  XYZ 
  end
  begin
     id 7 
     name rfemur
     direction -0.34202 -0.939693 0   
     length 6.95589   
     axis 0 0 -20   XYZ
    dof rx ry rz
    limits (-160.0 20.0)
           (-70.0 70.0)
           (-70.0 60.0)
  end
  begin
     id 8 
     name rtibia
     direction -0.34202 -0.939693 0   
     length 7.32327   
     axis 0 0 -20   XYZ
    dof rx
    limits (-10.0 170.0)
 end
 begin
     id 9 
     name rfoot
     direction -0.0660461 -0.18146 0.981178   
     length 1.85272  
     axis -90 -7.62852e-016 -20   XYZ
    dof rx rz
    limits (-45.0 90.0)
           (-20.0 70.0)
  end
  begin
     id 10 
     name rtoes
     direction -1.53586e-011 -4.21988e-011 1   
     length 0.93746   
     axis -90 -7.62852e-016 -20   XYZ
    dof rx
    limits (-90.0 20.0)
  end
  begin
     id 11 
     name lowerback
     direction -0.0107982 0.991059 0.13299   
     length 1.98691   
     axis 0 0 0   XYZ
    dof rx ry rz
    limits (-20.0 45.0)
           (-30.0 30.0)
           (-30.0 30.0)
  end
  begin
     id 12 
     name upperback
     direction 0.0076296 0.999916 0.0104576   
     length 1.99501   
     axis 0 0 0   XYZ
    dof rx ry rz
    limits (-20.0 45.0)
           (-30.0 30.0)
           (-30.0 30.0)
  end
  begin
     id 13 
     name thorax
     direction 0.01176 0.998615 -0.0512909   
     length 2.03144   
     axis 0 0 0   XYZ
    dof rx ry rz
    limits (-20.0 45.0)
           (-30.0 30.0)
           (-30.0 30.0)
  end
  begin
     id 14 
     name lowerneck
     direction -0.0171909 0.999644 0.0204011   
     length 1.71818   
     axis 0 0 0   XYZ
    dof rx ry rz
    limits (-20.0 45.0)
           (-30.0 30.0)
           (-30.0 30.0)
  end
  begin
     id 15 
     name upperneck
     direction 0.0250902 0.997482 -0.0663316   
     length 1.66199   
     axis 0 0 0   XYZ
    dof rx ry rz
    limits (-20.0 45.0)
           (-30.0 30.0)
           (-30.0 30.0)
  end
  begin
     id 16
     name head
     direction 0.00881535 0.99956 -0.0283365  
     length 1.81545  
     axis 0 0 0   XYZ
    dof rx ry rz
    limits (-20.0 45.0)
           (-30.0 30.0)
           (-30.0 30.0)
  end
  begin
     id 17 
     name lclavicle
     direction 0.840411 0.486876 -0.238035  
     length 3.30409  
     axis 0 0 0   XYZ
    dof ry rz
    limits (-20.0 10.0)
           (0.0 20.0)
  end
  begin
     id 18 
     name lhumerus
     direction 1 -4.48977e-011 -5.16239e-027   
     length 4.62672   
     axis 180 -30 -90   XYZ
    dof rx ry rz
    limits (-60.0 90.0)
           (-90.0 90.0)
           (-90.0 90.0)
  end
  begin
     id 19
     name lradius
     direction 1 -4.48977e-011 -8.71171e-027   
     length 3.11018   
     axis 180 -30 -90   XYZ
    dof rx
    limits (-10.0 170.0)
  end
  begin
     id 20
     name lwrist
     direction 1 -4.48912e-011 -1.03764e-026   
     length 1.55509   
     axis 9.09556e-015 90 90   XYZ
    dof ry
    limits (-180.0 0.0)
 end
  begin
     id 21 
     name lhand
     direction 1 -4.49072e-011 -2.07528e-026   
     length 0.743834   
     axis 1.3242e-014 90 90   XYZ
    dof rx rz
    limits (-90.0 90.0)
           (-45.0 45.0)
  end
  begin
     id 22 
     name lfingers
     direction 1 -4.48909e-011 -4.15056e-026   
     length 0.599698   
     axis 2.64841e-014 90 90   XYZ
    dof rx
    limits (0.0 90.0)
  end
  begin
     id 23
     name lthumb
     direction 0.707107 -6.35013e-011 0.707107   
     length 0.86105   
     axis -90 45 2.85299e-015   XYZ
    dof rx rz
    limits (-45.0 45.0)
           (-45.0 45.0)
  end
  begin
     id 24 
     name rclavicle
     direction -0.835208 0.500237 -0.228452   
     length 3.2716  
     axis 0 0 0   XYZ 
    dof ry rz
    limits (-10.0 20.0)
           (-20.0 0.0)
  end
  begin
     id 25 
     name rhumerus
     direction -1 -4.48978e-011 -5.1953e-028  
     length 4.55919   
     axis 180 30 90   XYZ
    dof rx ry rz
    limits (-90.0 60.0)
           (-90.0 90.0)
           (-90.0 90.0)
  end
  begin
     id 26 
     name rradius
     direction -1 -4.48961e-011 -5.99546e-027   
     length 3.22748   
     axis 180 30 90   XYZ
    dof rx
    limits (-10.0 170.0)
  end
  begin
     id 27 
     name rwrist
     direction -1 -4.48986e-011 -1.03764e-026   
     length 1.61374   
     axis 9.09556e-015 -90 -90   XYZ
    dof ry
    limits (-180.0 0.0)
  end
  begin
     id 28
     name rhand
     direction -1 -4.4899e-011 -2.07528e-026   
     length 0.700882   
     axis 1.3242e-014 -90 -90   XYZ
    dof rx rz
    limits (-90.0 90.0)
           (-45.0 45.0)
  end
  begin
     id 29
     name rfingers
     direction -1 -4.48991e-011 -4.15056e-026   
     length 0.565069   
     axis 2.64841e-014 -90 -90   XYZ
    dof rx
    limits (0.0 90.0)
  end
  begin
     id 30
     name rthumb
     direction -0.707107 -6.34804e-011 0.707107   
     length 0.811329   
     axis -90 -45 -2.85299e-015   XYZ
    dof rx rz
    limits (-45.0 45.0)
           (-45.0 45.0)
  end
:hierarchy
  begin
    root lhipjoint rhipjoint lowerback
    lhipjoint lfemur
    lfemur ltibia
    ltibia lfoot
    lfoot ltoes
    rhipjoint rfemur
    rfemur rtibia
    rtibia rfoot
    rfoot rtoes
    lowerback upperback
    upperback thorax
    thorax lowerneck lclavicle rclavicle
    lowerneck upperneck
    upperneck head
    lclavicle lhumerus
    lhumerus lradius
    lradius lwrist
    lwrist lhand lthumb
    lhand lfingers
    rclavicle rhumerus
    rhumerus rradius
    rradius rwrist
    rwrist rhand rthumb
    rhand rfingers
  end

#!OML:ASF F:\VICON\USERDATA\INSTALL\SteveWalk\SteveWalk.ASF
:FULLY-SPECIFIED
:DEGREES
190
root -0.513098 16.403 -6.26008 15.1333 -1.15436 3.05527
lowerback -13.0201 -0.84152 -6.06537
upperback -4.97968 -0.334107 -1.2047
thorax 2.07775 -0.124901 2.11066
lowerneck -4.92219 -0.186333 -0.0651857
upperneck 10.5853 -0.497973 2.32509
head 4.3747 -0.135409 0.76769
rclavicle -6.19338e-015 1.35174e-014
rhumerus -43.6001 -7.29588 -86.1869
rradius 31.6632
rwrist -10.5841
rhand -19.996 -39.0201
rfingers 7.12502
rthumb 6.34372 -68.9051
lclavicle -6.19338e-015 1.35174e-014
lhumerus -37.2838 20.0256 73.159
lradius 16.8227
lwrist -21.7399
lhand -18.1254 -17.5641
lfingers 7.12502
lthumb 8.14928 12.2587
rfemur -39.8764 -5.28906 18.4242
rtibia 75.4904
rfoot -6.74552 2.12013
rtoes -9.59649
lfemur -29.9054 1.51221 -28.0845
ltibia 34.9487
lfoot -19.3737 -2.98859
ltoes -5.15279
191
root -0.510119 16.3962 -6.07778 15.0756 -1.07072 2.90184
lowerback -12.9978 -0.866019 -6.04185
upperback -4.92496 -0.374516 -1.01265
thorax 2.12747 -0.146083 2.2924
lowerneck -4.79159 -0.224082 -0.0143087
upperneck 10.5651 -0.526842 2.09023
head 4.33949 -0.15989 0.677383
rclavicle -1.6027e-015 -2.38542e-015
rhumerus -44.1996 -8.02478 -85.3892
rradius 30.1866
rwrist -9.85616
rhand -20.0693 -37.3173
rfingers 7.12502
rthumb 6.27291 -67.2044
lclavicle -1.6027e-015 -2.38542e-015
lhumerus -35.9918 18.1437 74.9262
lradius 17.7419
lwrist -20.356
lhand -18.1631 -18.0445
lfingers 7.12502
lthumb 8.11297 11.7797
rfemur -41.1701 -5.06834 18.8455
rtibia 74.5429
rfoot -7.86013 1.55338
rtoes -12.2944
lfemur -29.1079 1.75284 -27.9448
ltibia 34.9355
lfoot -20.0233 -3.01154
ltoes -5.34508
192
root -0.507111 16.3982 -5.89036 15.0558 -0.910683 2.77983
lowerback -13.0144 -0.915265 -6.03518
upperback -4.83382 -0.441134 -0.820109
thorax 2.23906 -0.182616 2.48
lowerneck -4.90509 -0.277588 0.0480428
upperneck 10.6518 -0.578928 1.83135
head 4.39238 -0.194462 0.576931
rclavicle 3.42282e-015 1.47101e-014
rhumerus -44.8416 -8.96929 -84.3715
rradius 28.9031
rwrist -8.98982
rhand -20.055 -35.1892
rfingers 7.12502
rthumb 6.28668 -65.0759
lclavicle 3.42282e-015 1.47101e-014
lhumerus -34.6852 15.8431 76.7818
lradius 18.6881
lwrist -18.4814
lhand -18.1149 -18.4278
lfingers 7.12502
lthumb 8.15944 11.3947
rfemur -42.4262 -4.95057 19.2183
rtibia 73.3264
rfoot -9.00808 1.04989
rtoes -13.119
lfemur -28.2761 2.02568 -27.8352
ltibia 34.9022
lfoot -20.762 -3.20873
ltoes -5.18702
193
root -0.505702 16.4028 -5.69937 15.0786 -0.678365 2.60937
lowerback -12.9544 -0.995088 -5.93915
upperback -4.81783 -0.567888 -0.637224
thorax 2.23574 -0.245245 2.59897
lowerneck -5.10986 -0.334861 -0.0814976
upperneck 10.8915 -0.646714 1.80639
head 4.52236 -0.232001 0.589355
rclavicle 7.01958e-016 -7.35503e-015
rhumerus -45.6144 -9.72342 -83.4903
rradius 27.9842
rwrist -8.20126
rhand -20.0276 -35.3371
rfingers 7.12502
rthumb 6.31317 -65.223
lclavicle 7.01958e-016 -7.35503e-015
lhumerus -33.329 13.441 78.445
lradius 19.3262
lwrist -16.5075
lhand -18.148 -18.5222
lfingers 7.12502
lthumb 8.12748 11.3015
rfemur -43.5376 -4.86534 19.6238
rtibia 71.8459
rfoot -10.0818 0.678184
rtoes -12.4545
lfemur -27.4534 2.32542 -27.6554
ltibia 34.8061
lfoot -21.4038 -3.55656
ltoes -4.72553
194
root -0.50132 16.3954 -5.50579 15.1181 -0.448786 2.33669
lowerback -12.8514 -1.02638 -5.64097
upperback -4.94508 -0.662317 -0.483977
thorax 2.05517 -0.2861 2.57895
lowerneck -4.82667 -0.337261 -0.273882
upperneck 10.9289 -0.643891 1.91691
head 4.48039 -0.23432 0.661086
rclavicle 8.56948e-015 -2.04748e-014
rhumerus -46.5848 -10.5375 -82.5492
rradius 27.0801
rwrist -7.18646
rhand -19.6865 -36.7791
rfingers 7.12502
rthumb 6.64243 -66.6549
lclavicle 8.56948e-015 -2.04748e-014
lhumerus -32.3627 10.8438 79.9284
lradius 20.2599
lwrist -14.3176
lhand -18.0395 -18.1147
lfingers 7.12502
lthumb 8.23218 11.705
rfemur -44.5268 -4.72919 20.1327
rtibia 70.0956
rfoot -11.0871 0.143636
rtoes -14.2384
lfemur -26.6594 2.68228 -27.3765
ltibia 34.6811
lfoot -21.9588 -3.99686
ltoes -3.97452
